<svg xmlns="http://www.w3.org/2000/svg" viewBox="0 0 24 24"><title>Restaurant Menu</title><path fill-rule="evenodd" d="M20.15 10.15c-1.59 1.59-3.74 2.09-5.27 1.38L13.41 13l6.18 6.18a.996.996 0 1 1-1.41 1.41L12 14.41l-6.19 6.17a.996.996 0 1 1-1.41-1.41l9.06-9.06c-.71-1.53-.21-3.68 1.38-5.27 1.92-1.91 4.66-2.27 6.12-.81 1.47 1.47 1.1 4.21-.81 6.12Zm-9.22.36L8.1 13.34 3.91 9.16a4.016 4.016 0 0 1-.78-4.56c.3-.62 1.13-.75 1.61-.27l6.19 6.18Z"></path><metadata>book, dining, eat, food, fork, knife, local, meal, menu, restaurant, spoon</metadata></svg>
